# xmcd
#
# Track frame offsets:
#	150
#	18233
#	38042
#	60259
#	79023
#	109556
#	128015
#	148274
#	170332
#	197040
#	214165
#	237124
#	255584
#	283418
#
# Disc length: 4097 seconds
#
# Revision: 1
# Processed by: cddbd v1.5.2PL0 Copyright (c) Steve Scherf et al.
# Submitted via: audiograbber 1.83.01
#
DISCID=be0fff0e
DTITLE=Swift, Taylor - Speak Now
DYEAR=2010
DGENRE=Karaoke
TTITLE0=Mine
TTITLE1=Sparks Fly
TTITLE2=Back To December
TTITLE3=Speak Now
TTITLE4=Dear John
TTITLE5=Mean
TTITLE6=The Story Of Us
TTITLE7=Never Grow Up
TTITLE8=Enchanted
TTITLE9=Better Than Revenge
TTITLE10=Innocent
TTITLE11=Haunted
TTITLE12=Last Kiss
TTITLE13=Long Live
EXTD=accurate info
EXTT0=
EXTT1=
EXTT2=
EXTT3=
EXTT4=
EXTT5=
EXTT6=
EXTT7=
EXTT8=
EXTT9=
EXTT10=
EXTT11=
EXTT12=
EXTT13=
PLAYORDER=
